<svg width="20" height="20" viewBox="0 0 20 20" fill="none" xmlns="http://www.w3.org/2000/svg">
<g clip-path="url(#clip0)">
<path d="M0.625 15.8333H6.535C10.3283 15.8333 11.6442 10.8024 8.29083 8.99742C10.5417 7.03575 9.14833 3.33325 6.12833 3.33325H0.625C0.28 3.33325 0 3.61325 0 3.95825V15.2083C0 15.5533 0.28 15.8333 0.625 15.8333ZM1.25 4.58325H6.12833C8.80417 4.58325 8.8075 8.55658 6.12833 8.55658H1.25V4.58325ZM1.25 9.80658H6.535C9.7525 9.80658 9.7525 14.5833 6.535 14.5833H1.25V9.80658Z" fill="#C8C8C8"/>
<path d="M15.3117 6.54761C12.5959 6.54761 10.5159 8.95428 10.6159 10.8468C10.41 13.5801 12.6134 15.8334 15.3117 15.8334C16.9884 15.8334 18.5517 14.9459 19.3909 13.5159C19.81 12.8018 18.7317 12.1718 18.3134 12.8826C17.6975 13.9318 16.5467 14.5834 15.3117 14.5834C13.4892 14.5834 12.0075 13.1934 11.8742 11.4409C13.0767 11.4551 15.3209 11.2843 19.3634 11.4134C19.3767 11.4134 19.3859 11.4068 19.3984 11.4068C21.065 11.3318 19.2409 6.54761 15.3117 6.54761ZM12.0384 10.1293C13.11 6.97177 17.6367 7.06594 18.6134 10.1826C15.2267 10.2634 13.2 10.1276 12.0384 10.1293Z" fill="#C8C8C8"/>
<path d="M17.7571 5.38672C18.5846 5.38672 18.5838 4.13672 17.7571 4.13672H12.8654C12.0379 4.13672 12.0388 5.38672 12.8654 5.38672H17.7571Z" fill="#C8C8C8"/>
</g>
<defs>
<clipPath id="clip0">
<rect width="20" height="20" fill="white"/>
</clipPath>
</defs>
</svg>
