<svg width="184" height="177" viewBox="0 0 184 177" fill="none" xmlns="http://www.w3.org/2000/svg">
<path d="M4.01731 6.76495C5.70961 6.76495 7.0815 5.39671 7.0815 3.70889C7.0815 2.02108 5.70961 0.652832 4.01731 0.652832C2.32501 0.652832 0.953125 2.02108 0.953125 3.70889C0.953125 5.39671 2.32501 6.76495 4.01731 6.76495Z" fill="#C8C8C8"/>
<path d="M39.154 6.76495C40.8463 6.76495 42.2182 5.39671 42.2182 3.70889C42.2182 2.02108 40.8463 0.652832 39.154 0.652832C37.4617 0.652832 36.0898 2.02108 36.0898 3.70889C36.0898 5.39671 37.4617 6.76495 39.154 6.76495Z" fill="#C8C8C8"/>
<path d="M74.4939 6.76495C76.1862 6.76495 77.5581 5.39671 77.5581 3.70889C77.5581 2.02108 76.1862 0.652832 74.4939 0.652832C72.8016 0.652832 71.4297 2.02108 71.4297 3.70889C71.4297 5.39671 72.8016 6.76495 74.4939 6.76495Z" fill="#C8C8C8"/>
<path d="M109.63 6.76495C111.322 6.76495 112.694 5.39671 112.694 3.70889C112.694 2.02108 111.322 0.652832 109.63 0.652832C107.937 0.652832 106.565 2.02108 106.565 3.70889C106.565 5.39671 107.937 6.76495 109.63 6.76495Z" fill="#C8C8C8"/>
<path d="M144.97 6.76495C146.663 6.76495 148.035 5.39671 148.035 3.70889C148.035 2.02108 146.663 0.652832 144.97 0.652832C143.278 0.652832 141.906 2.02108 141.906 3.70889C141.906 5.39671 143.278 6.76495 144.97 6.76495Z" fill="#C8C8C8"/>
<path d="M183.17 3.70889C183.17 5.33879 181.74 6.76495 180.106 6.76495C178.472 6.76495 177.042 5.33879 177.042 3.70889C177.042 2.07899 178.472 0.652832 180.106 0.652832C181.945 0.652832 183.17 2.07899 183.17 3.70889Z" fill="#C8C8C8"/>
<path d="M7.0815 31.8247C7.0815 33.4546 5.65154 34.8808 4.01731 34.8808C2.38308 34.8808 0.953125 33.6584 0.953125 31.8247C0.953125 30.1948 2.38308 28.7687 4.01731 28.7687C5.65154 28.7687 7.0815 30.1948 7.0815 31.8247Z" fill="#C8C8C8"/>
<path d="M42.2182 31.8247C42.2182 33.4546 40.7883 34.8808 39.154 34.8808C37.5198 34.8808 36.0898 33.4546 36.0898 31.8247C36.0898 30.1948 37.5198 28.7687 39.154 28.7687C40.9925 28.7687 42.2182 30.1948 42.2182 31.8247Z" fill="#C8C8C8"/>
<path d="M77.5581 31.8247C77.5581 33.4546 76.1281 34.8808 74.4939 34.8808C72.8596 34.8808 71.4297 33.4546 71.4297 31.8247C71.4297 30.1948 72.8596 28.7687 74.4939 28.7687C76.1281 28.7687 77.5581 30.1948 77.5581 31.8247Z" fill="#C8C8C8"/>
<path d="M112.694 31.8247C112.694 33.4546 111.264 34.8808 109.63 34.8808C107.995 34.8808 106.565 33.4546 106.565 31.8247C106.565 30.1948 107.995 28.7687 109.63 28.7687C111.468 28.7687 112.694 30.1948 112.694 31.8247Z" fill="#C8C8C8"/>
<path d="M148.035 31.8247C148.035 33.4546 146.605 34.8808 144.97 34.8808C143.336 34.8808 141.906 33.4546 141.906 31.8247C141.906 30.1948 143.336 28.7687 144.97 28.7687C146.605 28.7687 148.035 30.1948 148.035 31.8247Z" fill="#C8C8C8"/>
<path d="M183.17 31.8247C183.17 33.4546 181.74 34.8808 180.106 34.8808C178.472 34.8808 177.042 33.4546 177.042 31.8247C177.042 30.1948 178.472 28.7687 180.106 28.7687C181.945 28.7687 183.17 30.1948 183.17 31.8247Z" fill="#C8C8C8"/>
<path d="M4.01731 63.2001C5.70961 63.2001 7.0815 61.8319 7.0815 60.1441C7.0815 58.4563 5.70961 57.088 4.01731 57.088C2.32501 57.088 0.953125 58.4563 0.953125 60.1441C0.953125 61.8319 2.32501 63.2001 4.01731 63.2001Z" fill="#C8C8C8"/>
<path d="M39.154 63.2001C40.8463 63.2001 42.2182 61.8319 42.2182 60.1441C42.2182 58.4563 40.8463 57.088 39.154 57.088C37.4617 57.088 36.0898 58.4563 36.0898 60.1441C36.0898 61.8319 37.4617 63.2001 39.154 63.2001Z" fill="#C8C8C8"/>
<path d="M74.4939 63.2001C76.1862 63.2001 77.5581 61.8319 77.5581 60.1441C77.5581 58.4563 76.1862 57.088 74.4939 57.088C72.8016 57.088 71.4297 58.4563 71.4297 60.1441C71.4297 61.8319 72.8016 63.2001 74.4939 63.2001Z" fill="#C8C8C8"/>
<path d="M109.63 63.2001C111.322 63.2001 112.694 61.8319 112.694 60.1441C112.694 58.4563 111.322 57.088 109.63 57.088C107.937 57.088 106.565 58.4563 106.565 60.1441C106.565 61.8319 107.937 63.2001 109.63 63.2001Z" fill="#C8C8C8"/>
<path d="M144.97 63.2001C146.663 63.2001 148.035 61.8319 148.035 60.1441C148.035 58.4563 146.663 57.088 144.97 57.088C143.278 57.088 141.906 58.4563 141.906 60.1441C141.906 61.8319 143.278 63.2001 144.97 63.2001Z" fill="#C8C8C8"/>
<path d="M183.17 60.1441C183.17 61.774 181.74 63.2001 180.106 63.2001C178.472 63.2001 177.042 61.774 177.042 60.1441C177.042 58.5142 178.472 57.088 180.106 57.088C181.945 57.088 183.17 58.5142 183.17 60.1441Z" fill="#C8C8C8"/>
<path d="M7.0815 88.2599C7.0815 89.8898 5.65154 91.316 4.01731 91.316C2.38308 91.316 0.953125 90.0935 0.953125 88.2599C0.953125 86.63 2.38308 85.2039 4.01731 85.2039C5.65154 85.2039 7.0815 86.63 7.0815 88.2599Z" fill="#C8C8C8"/>
<path d="M42.2182 88.2599C42.2182 89.8898 40.7883 91.316 39.154 91.316C37.5198 91.316 36.0898 89.8898 36.0898 88.2599C36.0898 86.63 37.5198 85.2039 39.154 85.2039C40.9925 85.2039 42.2182 86.63 42.2182 88.2599Z" fill="#C8C8C8"/>
<path d="M77.5581 88.2599C77.5581 89.8898 76.1281 91.316 74.4939 91.316C72.8596 91.316 71.4297 89.8898 71.4297 88.2599C71.4297 86.63 72.8596 85.2039 74.4939 85.2039C76.1281 85.2039 77.5581 86.63 77.5581 88.2599Z" fill="#C8C8C8"/>
<path d="M112.694 88.2599C112.694 89.8898 111.264 91.316 109.63 91.316C107.995 91.316 106.565 89.8898 106.565 88.2599C106.565 86.63 107.995 85.2039 109.63 85.2039C111.468 85.2039 112.694 86.63 112.694 88.2599Z" fill="#C8C8C8"/>
<path d="M148.035 88.2599C148.035 89.8898 146.605 91.316 144.97 91.316C143.336 91.316 141.906 89.8898 141.906 88.2599C141.906 86.63 143.336 85.2039 144.97 85.2039C146.605 85.2039 148.035 86.63 148.035 88.2599Z" fill="#C8C8C8"/>
<path d="M183.17 88.2599C183.17 89.8898 181.74 91.316 180.106 91.316C178.472 91.316 177.042 89.8898 177.042 88.2599C177.042 86.63 178.472 85.2039 180.106 85.2039C181.945 85.2039 183.17 86.63 183.17 88.2599Z" fill="#C8C8C8"/>
<path d="M4.01731 119.635C5.70961 119.635 7.0815 118.267 7.0815 116.579C7.0815 114.892 5.70961 113.523 4.01731 113.523C2.32501 113.523 0.953125 114.892 0.953125 116.579C0.953125 118.267 2.32501 119.635 4.01731 119.635Z" fill="#C8C8C8"/>
<path d="M39.154 119.635C40.8463 119.635 42.2182 118.267 42.2182 116.579C42.2182 114.892 40.8463 113.523 39.154 113.523C37.4617 113.523 36.0898 114.892 36.0898 116.579C36.0898 118.267 37.4617 119.635 39.154 119.635Z" fill="#C8C8C8"/>
<path d="M74.4939 119.635C76.1862 119.635 77.5581 118.267 77.5581 116.579C77.5581 114.892 76.1862 113.523 74.4939 113.523C72.8016 113.523 71.4297 114.892 71.4297 116.579C71.4297 118.267 72.8016 119.635 74.4939 119.635Z" fill="#C8C8C8"/>
<path d="M109.63 119.635C111.322 119.635 112.694 118.267 112.694 116.579C112.694 114.892 111.322 113.523 109.63 113.523C107.937 113.523 106.565 114.892 106.565 116.579C106.565 118.267 107.937 119.635 109.63 119.635Z" fill="#C8C8C8"/>
<path d="M144.97 119.635C146.663 119.635 148.035 118.267 148.035 116.579C148.035 114.892 146.663 113.523 144.97 113.523C143.278 113.523 141.906 114.892 141.906 116.579C141.906 118.267 143.278 119.635 144.97 119.635Z" fill="#C8C8C8"/>
<path d="M183.17 116.579C183.17 118.209 181.74 119.635 180.106 119.635C178.472 119.635 177.042 118.209 177.042 116.579C177.042 114.949 178.472 113.523 180.106 113.523C181.945 113.523 183.17 114.949 183.17 116.579Z" fill="#C8C8C8"/>
<path d="M7.0815 144.695C7.0815 146.325 5.65154 147.751 4.01731 147.751C2.38308 147.751 0.953125 146.529 0.953125 144.695C0.953125 143.065 2.38308 141.639 4.01731 141.639C5.65154 141.639 7.0815 143.065 7.0815 144.695Z" fill="#C8C8C8"/>
<path d="M42.2182 144.695C42.2182 146.325 40.7883 147.751 39.154 147.751C37.5198 147.751 36.0898 146.325 36.0898 144.695C36.0898 143.065 37.5198 141.639 39.154 141.639C40.9925 141.639 42.2182 143.065 42.2182 144.695Z" fill="#C8C8C8"/>
<path d="M77.5581 144.695C77.5581 146.325 76.1281 147.751 74.4939 147.751C72.8596 147.751 71.4297 146.325 71.4297 144.695C71.4297 143.065 72.8596 141.639 74.4939 141.639C76.1281 141.639 77.5581 143.065 77.5581 144.695Z" fill="#C8C8C8"/>
<path d="M112.694 144.695C112.694 146.325 111.264 147.751 109.63 147.751C107.995 147.751 106.565 146.325 106.565 144.695C106.565 143.065 107.995 141.639 109.63 141.639C111.468 141.639 112.694 143.065 112.694 144.695Z" fill="#C8C8C8"/>
<path d="M148.035 144.695C148.035 146.325 146.605 147.751 144.97 147.751C143.336 147.751 141.906 146.325 141.906 144.695C141.906 143.065 143.336 141.639 144.97 141.639C146.605 141.639 148.035 143.065 148.035 144.695Z" fill="#C8C8C8"/>
<path d="M183.17 144.695C183.17 146.325 181.74 147.751 180.106 147.751C178.472 147.751 177.042 146.325 177.042 144.695C177.042 143.065 178.472 141.639 180.106 141.639C181.945 141.639 183.17 143.065 183.17 144.695Z" fill="#C8C8C8"/>
<path d="M4.01731 176.071C5.70961 176.071 7.0815 174.702 7.0815 173.015C7.0815 171.327 5.70961 169.958 4.01731 169.958C2.32501 169.958 0.953125 171.327 0.953125 173.015C0.953125 174.702 2.32501 176.071 4.01731 176.071Z" fill="#C8C8C8"/>
<path d="M39.154 176.071C40.8463 176.071 42.2182 174.702 42.2182 173.015C42.2182 171.327 40.8463 169.958 39.154 169.958C37.4617 169.958 36.0898 171.327 36.0898 173.015C36.0898 174.702 37.4617 176.071 39.154 176.071Z" fill="#C8C8C8"/>
<path d="M74.4939 176.071C76.1862 176.071 77.5581 174.702 77.5581 173.015C77.5581 171.327 76.1862 169.958 74.4939 169.958C72.8016 169.958 71.4297 171.327 71.4297 173.015C71.4297 174.702 72.8016 176.071 74.4939 176.071Z" fill="#C8C8C8"/>
<path d="M109.63 176.071C111.322 176.071 112.694 174.702 112.694 173.015C112.694 171.327 111.322 169.958 109.63 169.958C107.937 169.958 106.565 171.327 106.565 173.015C106.565 174.702 107.937 176.071 109.63 176.071Z" fill="#C8C8C8"/>
<path d="M144.97 176.071C146.663 176.071 148.035 174.702 148.035 173.015C148.035 171.327 146.663 169.958 144.97 169.958C143.278 169.958 141.906 171.327 141.906 173.015C141.906 174.702 143.278 176.071 144.97 176.071Z" fill="#C8C8C8"/>
<path d="M183.17 173.015C183.17 174.644 181.74 176.071 180.106 176.071C178.472 176.071 177.042 174.644 177.042 173.015C177.042 171.385 178.472 169.958 180.106 169.958C181.945 169.958 183.17 171.385 183.17 173.015Z" fill="#C8C8C8"/>
</svg>
