<svg width="20" height="20" viewBox="0 0 20 20" fill="none" xmlns="http://www.w3.org/2000/svg">
  <g clip-path="url(#clip0)">
    <path
      d="M11.3506 19.9609H8.14155C7.60553 19.9609 7.1695 19.5258 7.1695 18.9908V11.7667H5.29725C4.76123 11.7667 4.3252 11.3313 4.3252 10.7965V7.70096C4.3252 7.16599 4.76123 6.7308 5.29725 6.7308H7.1695V5.18066C7.1695 3.64365 7.65308 2.33597 8.5678 1.39923C9.48664 0.458221 10.7707 -0.0390625 12.2813 -0.0390625L14.7287 -0.0350952C15.2638 -0.0341797 15.699 0.401001 15.699 0.935059V3.8092C15.699 4.34418 15.2632 4.77936 14.7273 4.77936L13.0795 4.77997C12.5769 4.77997 12.449 4.88052 12.4216 4.91135C12.3765 4.96246 12.3228 5.10696 12.3228 5.50598V6.73065H14.6034C14.7751 6.73065 14.9415 6.77292 15.0844 6.85257C15.3928 7.02454 15.5845 7.3497 15.5845 7.70111L15.5833 10.7967C15.5833 11.3313 15.1473 11.7665 14.6112 11.7665H12.3228V18.9908C12.3228 19.5258 11.8867 19.9609 11.3506 19.9609ZM8.34428 18.7885H11.1479V11.2418C11.1479 10.8846 11.4392 10.594 11.7969 10.594H14.4085L14.4096 7.90329H11.7968C11.439 7.90329 11.1479 7.61276 11.1479 7.25555V5.50598C11.1479 5.04791 11.1945 4.52698 11.541 4.13544C11.9596 3.66211 12.6193 3.60748 13.0792 3.60748L14.5243 3.60687V1.13709L12.2803 1.13342C9.85281 1.13342 8.34428 2.68433 8.34428 5.18066V7.25555C8.34428 7.61261 8.05318 7.90329 7.69543 7.90329H5.49998V10.594H7.69543C8.05318 10.594 8.34428 10.8846 8.34428 11.2418V18.7885ZM14.7264 1.13739H14.7265H14.7264Z"
      fill="#C8C8C8"/>
  </g>
  <defs>
    <clipPath id="clip0">
      <rect width="20" height="20" fill="white" id="MyRect"/>
    </clipPath>
  </defs>
</svg>
