<svg width="110" height="66" viewBox="0 0 110 66" fill="none" xmlns="http://www.w3.org/2000/svg">
<path d="M1.0583 42.67L11.8841 51.1686C11.8245 51.1365 11.7729 51.1012 11.7213 51.0658L0.895508 42.5673C0.947089 42.6026 0.998671 42.6379 1.0583 42.67Z" fill="#31123E"/>
<path d="M104.057 17.1169L92.322 11.7499C91.1246 11.1191 89.6722 11.086 88.2562 11.655C86.8289 12.2193 85.6198 13.3032 84.8428 14.7182L81.0123 21.6963C79.8467 23.8187 78.0203 25.4592 75.8657 26.3063C73.7223 27.1583 71.5405 27.1007 69.734 26.1633L63.8021 23.0524C62.5967 22.4248 61.1523 22.3884 59.7283 22.9607C58.301 23.525 57.0919 24.6089 56.3149 26.0239L52.4844 33.002C51.3188 35.1244 49.4923 36.7649 47.341 37.6201C45.1976 38.4721 43.0158 38.4144 41.2061 37.469L35.2742 34.3581C34.0688 33.7305 32.6244 33.6941 31.2004 34.2664C29.7779 34.8194 28.5688 35.9034 27.7918 37.3183L23.9612 44.2964C22.7957 46.4188 20.9692 48.0593 18.8179 48.9145C16.6745 49.7665 14.4927 49.7088 12.683 48.7634L1.05762 42.67L11.8834 51.1686L23.5088 57.262C25.3185 58.2074 27.4971 58.257 29.6436 57.4131C31.795 56.5578 33.6215 54.9174 34.787 52.795L38.6176 45.8169C39.3898 44.4132 40.6037 43.318 42.031 42.7537C43.4582 42.1895 44.9026 42.2258 46.1048 42.8454L52.0367 45.9563C53.8464 46.9017 56.025 46.9513 58.1716 46.1074C60.3149 45.2554 62.1494 43.6117 63.315 41.4893L67.1455 34.5112C67.9177 33.1075 69.1316 32.0123 70.5589 31.448C71.9862 30.8838 73.4305 30.9201 74.6327 31.5397L80.5646 34.6506C82.3743 35.596 84.5529 35.6456 86.6963 34.7936C88.8476 33.9384 90.6741 32.2979 91.8396 30.1755L95.6702 23.1974C96.4504 21.7905 97.6563 20.6985 99.0836 20.1343C100.503 19.5733 104.812 17.8322 105.906 17.0656L104.057 17.1169Z" fill="url(#paint0_linear)"/>
<path d="M1.54432 40.0915C1.89028 39.9525 2.26383 39.9519 2.58129 40.114L14.2067 46.2073C15.404 46.8382 16.8484 46.8745 18.2724 46.3022C19.6965 45.7299 20.9088 44.654 21.6858 43.239L25.5083 36.2642C26.6819 34.1385 28.5003 32.5013 30.6517 31.6461C32.795 30.7941 34.9849 30.8485 36.7865 31.7972L42.7185 34.9081C43.9158 35.5389 45.3602 35.5753 46.7842 35.003C48.2196 34.4355 49.4286 33.3515 50.1976 31.9398L54.0282 24.9617C55.2017 22.8361 57.0202 21.1988 59.1716 20.3436C61.3229 19.4884 63.5048 19.5461 65.3064 20.4947L71.2384 23.6056C72.4357 24.2365 73.8801 24.2728 75.3073 23.7086C76.7346 23.1443 77.9437 22.0603 78.7207 20.6454L82.5513 13.6673C83.7168 11.5449 85.5433 9.90443 87.6947 9.0492C89.838 8.1972 92.0198 8.25486 93.8295 9.20032L105.466 15.2985C106.07 15.6163 106.225 16.4421 105.809 17.1512C105.602 17.4961 105.298 17.7397 104.976 17.869C104.63 18.0081 104.257 18.0087 103.939 17.8466L92.3024 11.7484C91.1051 11.1176 89.6527 11.0845 88.2366 11.6535C86.8094 12.2178 85.6003 13.3017 84.8233 14.7167L80.9927 21.6948C79.8272 23.8172 78.0007 25.4577 75.8461 26.3048C73.7028 27.1568 71.5209 27.0992 69.7145 26.1618L63.7825 23.0509C62.5771 22.4233 61.1328 22.3869 59.7087 22.9592C58.2814 23.5235 57.0724 24.6074 56.2953 26.0224L52.4648 33.0005C51.2993 35.1229 49.4728 36.7633 47.3214 37.6186C45.1781 38.4706 42.9963 38.4129 41.1865 37.4675L35.2546 34.3566C34.0492 33.729 32.6049 33.6926 31.1808 34.2649C29.7777 34.8195 28.5686 35.9034 27.7916 37.3184L23.961 44.2965C22.7955 46.4189 20.969 48.0593 18.8176 48.9146C16.6743 49.7666 14.4925 49.7089 12.6828 48.7635L1.05739 42.6701C0.453071 42.3523 0.295543 41.5185 0.714659 40.8174C0.913765 40.4757 1.21446 40.2241 1.54432 40.0915Z" fill="url(#paint1_linear)"/>
<defs>
<linearGradient id="paint0_linear" x1="25.2455" y1="55.1728" x2="23.6056" y2="18.0573" gradientUnits="userSpaceOnUse">
<stop stop-color="#0084FF"/>
<stop offset="1" stop-color="#2BF6E7"/>
</linearGradient>
<linearGradient id="paint1_linear" x1="22.2214" y1="47.9797" x2="18.5322" y2="20.4089" gradientUnits="userSpaceOnUse">
<stop stop-color="#0084FF"/>
<stop offset="1" stop-color="#2BF6E7"/>
</linearGradient>
</defs>
</svg>
